# xmcd
#
# Track frame offsets:
# 150
# 6407
# 24852
# 46560
# 63060
# 81075
# 104585
# 119180
# 137795
# 169987
# 188085
# 202840
# 210147
# 225125
#
# Disc length: 3265 seconds
#
#
# Revision: 0
# Processed by: cddbd v1.5.1PL0 Copyright (c) Steve Scherf et al.
# Submitted via: FreeRIP 2.941 
#
DISCID=a90cbf0e
DTITLE=The Poor and Hungry
DYEAR=2000
DGENRE=Blues
TTITLE0=Amanda's Theme
TTITLE1=Little Boy Walk
TTITLE2=I Got My Mind Made Up
TTITLE3=Easy Rider
TTITLE4=No Mo
TTITLE5=Blue Shadows
TTITLE6=Don't You Yust Know It
TTITLE7=Evening String
TTITLE8=Baby What You Want Me To Do
TTITLE9=Mean st.
TTITLE10=Down The Road
TTITLE11=Monkey Lamp
TTITLE12=Heaven Singing
TTITLE13=Honeysuckle and Kudzu
EXTD=
EXTT0=
EXTT1=
EXTT2=
EXTT3=
EXTT4=
EXTT5=
EXTT6=
EXTT7=
EXTT8=
EXTT9=
EXTT10=
EXTT11=
EXTT12=
EXTT13=
PLAYORDER=
